/* XPM */
static char * intercoin16_xpm[] = {
"16 16 45 1",
" 	c None",
".	c #146A14",
"+	c #146B14",
"@	c #136A13",
"#	c #136913",
"$	c #167816",
"%	c #157415",
"&	c #157015",
"*	c #146C14",
"=	c #136813",
"-	c #136513",
";	c #177D17",
">	c #177917",
",	c #136413",
"'	c #188318",
")	c #177F17",
"!	c #167916",
"~	c #167516",
"{	c #157115",
"]	c #146F14",
"^	c #136B13",
"/	c #198319",
"(	c #198219",
"_	c #167716",
":	c #198719",
"<	c #187D18",
"[	c #167316",
"}	c #147014",
"|	c #198919",
"1	c #198619",
"2	c #188018",
"3	c #167616",
"4	c #156F15",
"5	c #198819",
"6	c #188218",
"7	c #157515",
"8	c #198A19",
"9	c #188118",
"0	c #178017",
"a	c #177B17",
"b	c #1A8B1A",
"c	c #146E14",
"d	c #157315",
"e	c #177C17",
"f	c #198419",
"                ",
"      .+@.#     ",
"   $%&*++@@=-   ",
"  ;>   *@   =,  ",
" ') !~{]^+@# -, ",
" /(  _       =- ",
" :' < _[}*+. #= ",
" |1 2 $3{4 + @# ",
"  5 6) _7 *@ @  ",
"  8 /9 >_ &+ @  ",
"   | '0a ~{ @+  ",
"   b5 62 $ &c   ",
"    8:    _d    ",
"     51(2e>     ",
"       f9       ",
"                "};
