/* XPM */
static char * intercoin64_xpm[] = {
"64 64 91 1",
" 	c None",
".	c #146C14",
"+	c #136A13",
"@	c #146914",
"#	c #146A14",
"$	c #146B14",
"%	c #136B13",
"&	c #136913",
"*	c #136813",
"=	c #146F14",
"-	c #156E15",
";	c #136713",
">	c #157115",
",	c #167316",
"'	c #157015",
")	c #156F15",
"!	c #146714",
"~	c #157515",
"{	c #167416",
"]	c #157215",
"^	c #146D14",
"/	c #126512",
"(	c #167816",
"_	c #167516",
":	c #136513",
"<	c #136413",
"[	c #167916",
"}	c #167A16",
"|	c #167616",
"1	c #167716",
"2	c #157315",
"3	c #146E14",
"4	c #156D15",
"5	c #146814",
"6	c #136613",
"7	c #126212",
"8	c #177A17",
"9	c #177B17",
"0	c #177C17",
"a	c #177917",
"b	c #157415",
"c	c #167216",
"d	c #136313",
"e	c #126412",
"f	c #126312",
"g	c #187F18",
"h	c #187E18",
"i	c #177D17",
"j	c #177817",
"k	c #188118",
"l	c #177E17",
"m	c #136C13",
"n	c #125F12",
"o	c #188218",
"p	c #188018",
"q	c #187D18",
"r	c #147014",
"s	c #177F17",
"t	c #198419",
"u	c #188318",
"v	c #1A851A",
"w	c #198319",
"x	c #126612",
"y	c #188518",
"z	c #198619",
"A	c #198719",
"B	c #178017",
"C	c #147114",
"D	c #198519",
"E	c #198819",
"F	c #198A19",
"G	c #178117",
"H	c #198219",
"I	c #198919",
"J	c #1A8C1A",
"K	c #198B19",
"L	c #147214",
"M	c #156C15",
"N	c #1A881A",
"O	c #157615",
"P	c #1A8A1A",
"Q	c #1A8B1A",
"R	c #177717",
"S	c #1A871A",
"T	c #188418",
"U	c #156B15",
"V	c #1A8D1A",
"W	c #188618",
"X	c #167B16",
"Y	c #1A891A",
"Z	c #187A18",
"                                                                ",
"                                                                ",
"                                                                ",
"                                                                ",
"                                                                ",
"                        .+@#$%.#&*+&&&@.                        ",
"                    =-.$$$+++$$$++++++++%@*;                    ",
"                  >,')==.$$++$$$+++++&+++&&*;&!                 ",
"               ~{{]''''=^$$$++$$$++++++++++**++;/               ",
"              (____>'''=^..$%&#%%%##&+#++++**&&;:<:             ",
"            [}|1___2]'''34.%@       #5++++++**;*6<67            ",
"          890a(11|~b]>=c                %@5#&*;;**d6ef          ",
"         g0888111|b|>                      55***;&6</<:         ",
"        hi0888[1j1_                          &;#;+*<:<<<        ",
"       kll0i8a8a(        =33....m$^*+$*        6++*:<<<<6n      ",
"      oppll9i8[q      (>'''=r.$$+++$$++$;*       ;&*:<<<<<      ",
"      ooksliia      {12,>''''^..+++$$$+&$*$&      6;6<<<<:      ",
"      tkkkgl0      ~____2''''==$$$++$++$+++&+;     &:<<<<<      ",
"      uokpli     [8(1|__b]''''3^$+$+++$#+++&*#;     6::<<f6     ",
"      uukkkl    901111___2>'''==^+$++$$$+++++++5     #6<<</     ",
"     vuowkp       0(j11__{>')))3^..%$$$$#*&##+       ;*;:<x     ",
"     ywutpp        a|11||~~2'''3=.$$+&+$$$%+#        ;**6de     ",
"     tttuow          (1[{                        @   **6*:e     ",
"     ttuuuk   i0     a[|                        #*   5*;*::     ",
"     ztttuk   lgl0    [(                      #*+&   +*;++;     ",
"     Atttou   pBli    a(a1_~_]]]C=r3..$%m%+++*$**#   .**++:     ",
"     DEEtDk   gkh0h    a(1|___]''''=3$$m#&$$$++++@   .+**;6     ",
"     FEEDDw   GHgpih   (a111__b]'''=3..$+ &.#+++&&   %++*6&     ",
"      EEztt   Bokplq    8j11|b_b]'''==^$   *$%$+&#   &++*;*     ",
"      EEAzy   tkkksis    a111__b]'''')^4   +.$$++$   +$++;;     ",
"      IEEEz    kkkps0    [}11|__b]'''3^    &$$$#@&   #+++&      ",
"      FIEEE    kokkpiq    ((11|__b>'''    #.&+$+#    &+++*      ",
"      JEEEDA   wtkkks0l   99|11__{2>'r    $$++$$.    $++++      ",
"       KIEIA   wookkgp0    ([11||__]>    +.$%++$%   +@++#+      ",
"       JIEEA    Dukkkgli    8(11|bbbL    ^#$$++++   &#++*       ",
"       FFIEI    kuukkpsp    (9111|_b    Mr=3$$*$    +++&@       ",
"        FFEAN   zuokkkpsl    [[11|O_   >')'3$$$$   *%++&;       ",
"        JIFEP    twukkkgg    9[(111    r''=r$$%    .++++        ",
"        EJFIEA   Hwukkkplh    8[11    {''''=..*   #&$++&        ",
"         KFFEE    tuokkkpli   89a[    ]b''''=^    %$$$&         ",
"         QQFIEA    uuuuokpl    9}    {_2>'''=    #$$.#%         ",
"          KQFEz     Huukokpiqi9[8   [b_{2'''r    $++$%          ",
"          QQFFFE    Doookkkl0809    R1___>->    %.$+@.          ",
"           JKFFIA    zookkksl0ii   [j|___]2    )$.$+@           ",
"            JKFIES    uTokkkgli    [(11|~{     =3^..U           ",
"            VQFKEEA    Huokkkl    88(11||     '=3^$+            ",
"             QJIFEIz     ukppk    8a88|j     >'')=+             ",
"              QQQIAWz     uoop    88[(      {>>''.              ",
"               QJFFEEz      kk    89      O|_]'='               ",
"                PFQEEzz                  |___bC]                ",
"                 FPIEEITz              8111|b|{                 ",
"                  KKFEEEztu           9X[111|{                  ",
"                   PQEEEAtDuw      i90888[112                   ",
"                    QENEEzDDuwokkgpil0888}(|                    ",
"                      EAAEDtttuokoBli9i88(                      ",
"                       zIYztDtuookkgli8iZ                       ",
"                         tzAttuuokkpgiq                         ",
"                           NDtDootBps                           ",
"                              wTwo                              ",
"                                                                ",
"                                                                ",
"                                                                ",
"                                                                ",
"                                                                "};
