/* XPM */
static char * intercoin32_xpm[] = {
"32 32 60 1",
" 	c None",
".	c #146B14",
"+	c #146A14",
"@	c #136A13",
"#	c #156F15",
"$	c #146D14",
"%	c #136813",
"&	c #167616",
"*	c #167516",
"=	c #157215",
"-	c #157015",
";	c #146C14",
">	c #136B13",
",	c #136913",
"'	c #136513",
")	c #177A17",
"!	c #167716",
"~	c #157415",
"{	c #157115",
"]	c #156E15",
"^	c #136713",
"/	c #136413",
"(	c #126412",
"_	c #187E18",
":	c #177B17",
"<	c #146914",
"[	c #188118",
"}	c #177E17",
"|	c #177D17",
"1	c #146F14",
"2	c #188218",
"3	c #177C17",
"4	c #167416",
"5	c #188318",
"6	c #167816",
"7	c #146E14",
"8	c #198219",
"9	c #188018",
"0	c #198419",
"a	c #177917",
"b	c #187F18",
"c	c #167916",
"d	c #198919",
"e	c #198519",
"f	c #147014",
"g	c #198819",
"h	c #198619",
"i	c #1A8B1A",
"j	c #198719",
"k	c #157315",
"l	c #177F17",
"m	c #198A19",
"n	c #1A8A1A",
"o	c #198B19",
"p	c #198319",
"q	c #157515",
"r	c #178017",
"s	c #177717",
"t	c #167316",
"u	c #1A8C1A",
"                                ",
"                                ",
"              .+@@+             ",
"          #$.@..@@@@@%%         ",
"       &*=--;.@.>+@@@,,%'       ",
"      )!&~{-]      @@+%^^/(     ",
"    _:)!!*            <%%'''    ",
"   [}|))    -1$;>@>+    ,%///   ",
"   2[}3   *4{-1$.@.@@@   ^'//   ",
"   5[}  :6!*~--7>.@.@@@%  ^//   ",
"   289   :!&*=##$.+.+@+   ^%/   ",
"   05  }  a6            <  ^^   ",
"   05  b|  c         > <,  ^>   ",
"   de  [__  6&*=-f$;+.+@,  @^   ",
"   gh  2[|  a!**{--;  ;.+  @%   ",
"   dge 2[9|  6!*~--  .@.< +@,   ",
"   igj  2[}  :!&*k-  .@.@ +@@   ",
"    dg  5[9l  a!&~  7;.@  @@<   ",
"    mgn e2[9_ )6!&  -f.;  @@    ",
"    omj  p[[}  )6  k--$  @.,    ",
"     odj  52[l )  q4{-1  @.     ",
"     imd  e2[r33  s*t-  .@.     ",
"      umg  52[l  )!!*  17.      ",
"       imj   [[  )a   =-#       ",
"        mdj      3   *4f        ",
"         mgje      :!!*         ",
"          dghe8  }3))!          ",
"           jd0022l|3a           ",
"             j0529}             ",
"                                ",
"                                ",
"                                "};
